<?xml version="1.0" standalone="no"?>
<!DOCTYPE svg PUBLIC "-//W3C//DTD SVG 20010904//EN"
 "http://www.w3.org/TR/2001/REC-SVG-20010904/DTD/svg10.dtd">
<svg version="1.0" xmlns="http://www.w3.org/2000/svg"
 width="100.000000pt" height="100.000000pt" viewBox="0 0 100.000000 100.000000"
 preserveAspectRatio="xMidYMid meet">
<metadata>
Created by potrace 1.15, written by Peter Selinger 2001-2017
</metadata>
<g transform="translate(0.000000,100.000000) scale(0.100000,-0.100000)"
fill="#000000" stroke="none">
<path d="M394 975 c-225 -49 -394 -257 -394 -484 0 -190 116 -373 285 -452 80
-38 95 -31 95 42 l0 49 -59 0 c-64 0 -104 22 -116 63 -4 12 -23 39 -43 60
l-36 37 28 0 c21 0 41 -13 77 -50 41 -43 54 -50 86 -50 45 0 53 5 74 46 l17
32 -40 6 c-113 18 -173 87 -185 211 -5 56 -3 71 21 118 14 30 23 62 20 71 -3
9 -3 36 0 61 9 54 24 57 103 20 48 -22 58 -23 113 -14 39 6 81 6 121 0 56 -9
65 -8 110 14 26 14 58 25 69 25 26 0 43 -42 37 -92 -4 -27 2 -50 20 -85 21
-41 24 -57 20 -115 -10 -126 -71 -196 -186 -214 -39 -6 -40 -7 -26 -27 11 -15
15 -49 15 -118 0 -126 6 -132 95 -90 169 79 285 262 285 452 0 229 -170 436
-399 485 -80 17 -127 17 -207 -1z"/>
</g>
</svg>
