<?xml version="1.0" standalone="no"?>
<!DOCTYPE svg PUBLIC "-//W3C//DTD SVG 20010904//EN"
 "http://www.w3.org/TR/2001/REC-SVG-20010904/DTD/svg10.dtd">
<svg version="1.0" xmlns="http://www.w3.org/2000/svg"
 width="100.000000pt" height="100.000000pt" viewBox="0 0 100.000000 100.000000"
 preserveAspectRatio="xMidYMid meet">
<metadata>
Created by potrace 1.15, written by Peter Selinger 2001-2017
</metadata>
<g transform="translate(0.000000,100.000000) scale(0.100000,-0.100000)"
fill="#000000" stroke="none">
<path d="M225 788 c-27 -15 -35 -28 -35 -60 0 -65 89 -93 129 -42 27 35 26 59
-4 89 -26 27 -58 31 -90 13z"/>
<path d="M572 585 c-31 -26 -32 -26 -32 -6 0 19 -6 21 -70 21 l-70 0 0 -200 0
-200 70 0 70 0 0 134 c0 133 0 135 26 155 33 26 55 26 85 2 23 -18 24 -26 27
-155 l4 -136 64 0 64 0 0 145 c0 158 -8 192 -54 235 -21 19 -40 25 -89 28 -57
4 -66 1 -95 -23z"/>
<path d="M197 403 l2 -198 66 -3 65 -3 0 201 0 200 -67 0 -68 0 2 -197z"/>
</g>
</svg>
