<?xml version="1.0" standalone="no"?>
<!DOCTYPE svg PUBLIC "-//W3C//DTD SVG 20010904//EN"
 "http://www.w3.org/TR/2001/REC-SVG-20010904/DTD/svg10.dtd">
<svg version="1.0" xmlns="http://www.w3.org/2000/svg"
 width="103.000000pt" height="103.000000pt" viewBox="0 0 103.000000 103.000000"
 preserveAspectRatio="xMidYMid meet">
<metadata>
Created by potrace 1.15, written by Peter Selinger 2001-2017
</metadata>
<g transform="translate(0.000000,103.000000) scale(0.100000,-0.100000)"
fill="#000000" stroke="none">
<path d="M26 857 c-15 -11 9 -34 224 -215 164 -137 249 -202 265 -202 16 0
101 65 265 202 215 181 239 204 224 215 -26 19 -952 19 -978 0z"/>
<path d="M0 494 c0 -282 1 -296 18 -282 9 8 88 74 175 147 86 73 157 134 157
136 0 2 -76 67 -322 273 l-28 24 0 -298z"/>
<path d="M865 653 c-88 -74 -166 -140 -173 -147 -12 -11 15 -38 160 -159 l173
-146 3 150 c1 83 1 215 0 294 l-3 143 -160 -135z"/>
<path d="M213 317 c-94 -78 -172 -145 -172 -149 -1 -5 213 -8 474 -8 261 0
475 3 474 8 0 7 -333 285 -347 290 -4 1 -29 -16 -56 -38 -26 -22 -58 -40 -71
-40 -13 0 -45 18 -71 40 -27 22 -51 40 -54 40 -3 0 -82 -64 -177 -143z"/>
</g>
</svg>
